General                          : ChattChitto RG - Movies [R2L]
==========
Complete name                    : From Paris with Love 2010 720p BRRip H264 [ChattChitto RG]
Format profile                   : Base Media
Codec ID                         : isom
File size                        : 1.72 GiB
Duration                         : 1h 32mn
Overall bit rate                 : 2 658 Kbps
Encoded date                     : UTC 2011-01-14 18:40:38

Video
==========
ID                               : 1
Format                           : AVC
Format/Info                      : Advanced Video Codec
Format profile                   : High@L4.0
Format settings, CABAC           : Yes
Format settings, ReFrames        : 4 frames
Codec ID                         : avc1
Codec ID/Info                    : Advanced Video Coding
Duration                         : 1h 32mn
Bit rate mode                    : Variable
Bit rate                         : 2 300 Kbps
Maximum bit rate                 : 15.8 Mbps
Width                            : 1 280 pixels
Height                           : 528 pixels
Display aspect ratio             : 2.40:1
Frame rate mode                  : Constant
Frame rate                       : 23.976 fps
Resolution                       : 24 bits
Colorimetry                      : 4:2:0
Scan type                        : Progressive
Bits/(Pixel*Frame)               : 0.142
Stream size                      : 1.49 GiB (87%)
Writing library                  : x264 core 84 r1400M 20fa784
Encoded date                     : UTC 2011-01-14 17:58:14

Audio
==========
ID                               : 2
Format                           : AAC
Format/Info                      : Advanced Audio Codec
Format version                   : Version 4
Format profile                   : LC
Format settings, SBR             : No
Codec ID                         : 40
Duration                         : 1h 32mn
Bit rate mode                    : Variable
Bit rate                         : 352.8 Kbps
Maximum bit rate                 : 464 Kbps
Channel(s)                       : 6 channels
Channel positions                : Front: L C R, Rear: L R, LFE
Sampling rate                    : 48.0 KHz
Resolution                       : 16 bits
Stream size                      : 235 MiB (13%)
Encoded date                     : UTC 2011-01-14 18:41:34

Subtitles                        : English | French | Spanish


----------------------------------------------------
IMDB Link: http://www.imdb.com/title/tt1179034/
----------------------------------------------------



Screen Shots:
==============    
http://bayimg.com/IaDkiaADG 
http://bayimg.com/IaDkjaaDg 
http://bayimg.com/iADkKaaDg 
http://bayimg.com/IaDKLaaDG 
http://bayimg.com/iADKmAaDg



ScreenShots Comparison:
=========================  
http://screenshotcomparison.com/comparison/21184



Plot:
======
A personal aide to U.S. Ambassador in France, James Reece has an enviable life in Paris and a beautiful French girlfriend, but his real passion is his side job as a low-level operative for the CIA. All James wants is to become a bona fide agent and see some real action. So when he's offered his first senior- level assignment, he can't believe his good luck until he meets his new partner, special agent Charlie Wax - a trigger-happy, wisecracking, loose cannon who's been sent to Paris to stop a terrorist attack. Wax leads James on a white-knuckle shooting spree through the Parisian underworld that has James praying for his desk job. But when James discovers he's a target of the same crime ring they're trying to bust, he realizes there's no turning back...and that Wax himself might be his only hope for making it through the next forty-eight hours alive.



Release Info:
==============
original name .... : From Paris with Love 2010 720p BRRip H264 [ChattChitto RG]
ripper.............: ViSTA
encoder............: Recalled2Life (R2L)
video codec........: H264/.MP4
video bitrate......: 2300 Kbps
audio codec........: AAC-LC
aspect ratio.......: 2.40:1
resolution.........: 1280 x 528
genre..............: Action | Crime | Thriller
runtime............: 1h 32mn
language...........: English
rating.............: R
subtitles..........: English | French | Spanish
sample.............: Yes [18.6 MB]
2ch Audio..........: 2ch Audio for XBox Viewers
Compatibility .....: XBox | PS3 | WD Live



Source:
========
From Paris with Love 1080p x264/DTS - ViSTA  THANKS!



Notes:
=======
ChattChitto RG Encourages Burning this Film with ConvertXtoDVD and Playing with VLC media player.
XBox 360 | PS3 | WD Live - Compatible 
Enhanced for your viewing pleasure ;)